<svg version="1.0" xmlns="http://www.w3.org/2000/svg"
     width="300.000000pt" height="300.000000pt" viewBox="0 0 300.000000 300.000000"
     preserveAspectRatio="xMidYMid meet">

    <g transform="translate(-30.000000,300.000000) scale(0.100000,-0.100000)" stroke="none">
        <path d="M1589 2463 c-141 -3 -200 -7 -206 -16 -6 -6 -31 -68 -56 -137 -74
-201 -68 -190 -98 -190 -47 0 -198 -30 -262 -51 -278 -96 -505 -314 -592 -569
-65 -190 -1 -395 150 -487 57 -35 130 -65 182 -74 32 -6 65 -14 73 -18 8 -4
47 -16 86 -26 l71 -18 -48 -103 c-27 -57 -49 -112 -49 -123 0 -24 10 -27 125
-41 49 -6 90 -12 91 -13 1 -1 -43 -108 -97 -237 -103 -241 -108 -265 -61 -265
14 0 135 114 371 348 192 191 352 354 355 362 8 23 -15 32 -97 40 l-78 7 42
76 c23 43 45 81 49 86 15 15 78 -14 113 -53 46 -51 62 -118 53 -225 -6 -75 -5
-84 13 -101 52 -46 239 27 349 137 76 76 144 205 168 318 50 239 -43 518 -242
722 l-58 59 138 277 c80 160 137 286 135 297 -4 19 -13 20 -214 20 -116 0
-298 -1 -406 -2z m52 -117 l-125 -42 -44 -110 c-24 -60 -65 -165 -91 -234
l-48 -125 -39 -3 c-80 -5 -82 -17 106 476 l32 82 166 -1 167 -1 -124 -42z
m-536 -386 c-11 -4 -26 -5 -32 -3 -7 3 -13 -1 -13 -8 0 -7 -2 -10 -5 -7 -3 3
-3 12 0 20 4 10 16 13 38 10 27 -4 29 -6 12 -12z m-88 -22 c11 2 24 -1 27 -6
3 -6 -2 -8 -13 -5 -11 3 -21 -2 -24 -11 -7 -19 11 -32 25 -18 5 5 29 8 51 5
31 -3 38 -2 27 6 -12 8 -11 10 7 9 16 -2 20 -7 16 -23 -15 -61 -15 -77 3 -96
26 -29 120 -75 193 -95 34 -10 61 -21 61 -26 0 -17 -56 -29 -108 -23 -60 7
-92 -10 -92 -50 0 -33 21 -52 69 -65 91 -24 191 12 246 88 l30 42 110 -5 c125
-5 135 -6 132 -14 -3 -11 32 -55 39 -48 4 4 1 13 -6 22 -10 12 -10 15 0 15 9
0 9 4 -1 18 -12 15 -12 16 2 4 9 -7 25 -10 35 -7 12 4 11 2 -3 -6 -13 -7 -23
-16 -23 -21 0 -12 14 -10 36 7 10 8 23 15 27 15 13 0 -16 -25 -36 -33 -10 -4
-15 -12 -12 -17 4 -6 3 -9 -2 -8 -4 1 -33 -14 -63 -34 -113 -73 -142 -117
-103 -160 22 -25 62 -23 92 6 15 13 39 32 55 42 28 18 29 18 23 -1 -36 -121
-39 -138 -28 -161 5 -13 21 -26 35 -30 40 -10 64 11 82 73 l16 56 23 -48 c13
-26 21 -54 18 -61 -3 -8 0 -14 6 -14 6 0 11 4 11 8 0 5 7 9 15 9 8 0 12 -4 9
-9 -3 -4 -1 -8 5 -8 5 0 12 5 14 10 3 6 4 5 3 -2 -2 -7 -11 -13 -22 -13 -21 0
-60 -35 -87 -78 -10 -15 -24 -30 -32 -33 -7 -3 -53 24 -101 60 -48 36 -96 66
-106 66 -38 0 -58 -19 -58 -55 0 -30 7 -40 57 -77 68 -51 53 -60 -46 -28 -35
11 -88 23 -117 26 l-53 7 24 36 c65 99 91 295 45 341 -27 27 -46 25 -76 -6
-22 -21 -25 -31 -19 -60 3 -20 1 -60 -5 -90 -11 -53 -12 -54 -46 -54 -39 0
-100 28 -126 57 -10 11 -22 41 -27 68 -14 73 -59 97 -102 54 -18 -18 -21 -29
-16 -71 12 -97 84 -179 189 -214 26 -8 46 -19 44 -23 -16 -25 -95 -65 -172
-86 -49 -13 -116 -33 -148 -44 -74 -26 -91 -26 -117 0 -18 18 -21 30 -17 94 2
41 6 76 9 79 3 4 26 -3 50 -13 69 -31 124 -37 154 -17 49 32 21 106 -40 106
-30 0 -117 44 -142 71 -35 39 -45 76 -31 116 29 79 -69 117 -108 42 -23 -46
-21 -111 6 -168 l22 -49 -21 -57 c-22 -59 -29 -154 -15 -209 l7 -29 -42 7
c-64 10 -145 50 -196 97 -45 41 -92 115 -81 126 3 3 41 0 84 -7 90 -14 118 -6
128 36 12 46 -24 70 -129 84 -51 7 -95 14 -99 16 -11 7 17 106 48 169 16 33
52 84 80 113 28 29 48 54 46 57 -3 3 0 5 7 5 7 0 10 4 7 9 -3 5 1 12 10 15 9
4 13 2 8 -5 -4 -7 -1 -10 7 -7 8 3 13 11 11 17 -1 7 2 10 7 7 13 -8 42 4 36
15 -3 4 -13 5 -23 2 -13 -5 -14 -3 -6 6 9 9 17 10 31 2 11 -5 24 -7 29 -3 6 4
-5 -7 -24 -25 -79 -74 -102 -135 -65 -175 19 -21 57 -24 73 -5 6 6 20 26 30
44 10 17 44 51 75 74 66 50 77 48 115 -26 14 -26 32 -53 41 -58 24 -15 64 0
78 29 10 22 8 34 -13 79 -13 30 -43 73 -65 98 -23 24 -41 50 -41 56 0 7 -5 9
-12 5 -9 -5 -8 -2 1 9 18 23 10 30 -23 18 -39 -16 -31 -3 10 14 22 9 33 19 28
26 -5 8 -3 9 7 3 8 -4 24 -7 36 -6z m77 -2 c-10 -8 -21 -12 -24 -10 -5 6 21
24 34 24 6 0 1 -6 -10 -14z m837 -233 c-1 -4 -7 -8 -13 -8 -8 0 -12 -11 -11
-28 2 -22 0 -25 -11 -14 -8 6 -10 14 -4 16 5 1 1 13 -9 24 -13 16 -14 18 -2 9
13 -10 19 -9 29 3 13 15 22 14 21 -2z m23 -31 c2 -4 -5 -9 -17 -9 -17 -2 -19
0 -7 7 18 12 18 12 24 2z m6 -26 c0 -2 -7 -7 -16 -10 -8 -3 -12 -2 -9 4 6 10
25 14 25 6z m75 -156 c3 -5 2 -10 -4 -10 -5 0 -13 5 -16 10 -3 6 -2 10 4 10 5
0 13 -4 16 -10z m5 -35 c0 -8 -2 -15 -4 -15 -2 0 -6 7 -10 15 -3 8 -1 15 4 15
6 0 10 -7 10 -15z m26 -13 c-17 -16 -18 -16 -5 5 7 12 15 20 18 17 3 -2 -3
-12 -13 -22z m-56 8 c0 -5 -2 -10 -4 -10 -3 0 -8 5 -11 10 -3 6 -1 10 4 10 6
0 11 -4 11 -10z m73 -25 c-3 -9 -8 -14 -10 -11 -3 3 -2 9 2 15 9 16 15 13 8
-4z m-13 -50 c0 -5 -5 -3 -10 5 -5 8 -10 20 -10 25 0 6 5 3 10 -5 5 -8 10 -19
10 -25z m25 -17 c1 -18 5 -44 9 -58 4 -14 -2 -7 -13 15 -19 37 -20 38 -21 13
0 -15 -4 -29 -8 -32 -4 -2 -6 11 -4 30 2 19 8 34 13 34 5 0 9 10 9 22 0 33 13
13 15 -24z m18 -8 c3 -11 1 -18 -4 -14 -5 3 -9 12 -9 20 0 20 7 17 13 -6z
m-71 -115 c3 3 5 -1 5 -8 0 -11 -6 -11 -24 -3 -12 6 -23 15 -23 19 0 4 8 3 19
-2 10 -6 20 -8 23 -6z m60 -54 c-8 -4 -10 -15 -6 -26 5 -13 4 -16 -4 -11 -7 4
-12 1 -12 -9 0 -9 4 -14 9 -10 5 3 13 0 17 -6 4 -8 3 -9 -5 -5 -6 4 -15 -2
-21 -16 -11 -23 -11 -23 -6 0 2 13 -2 26 -12 32 -11 6 -13 9 -4 10 9 0 11 8 8
23 -3 12 -3 16 0 9 5 -10 10 -8 21 8 8 12 18 19 21 15 4 -3 1 -10 -6 -14z m24
-17 c-4 -14 -9 -24 -12 -21 -3 2 -2 17 2 31 3 15 9 25 11 22 3 -3 2 -17 -1
-32z m-85 -73 c-9 -6 -10 -11 -2 -15 6 -4 11 -13 11 -19 0 -8 -3 -8 -9 2 -5 8
-11 9 -15 3 -4 -6 2 -16 11 -22 16 -10 16 -11 1 -6 -11 3 -20 -4 -27 -22 l-11
-27 5 27 c3 15 0 30 -5 33 -6 4 -10 3 -9 -2 1 -4 1 -25 0 -46 -1 -26 -5 -36
-13 -31 -7 5 -9 1 -6 -12 3 -11 -1 -25 -9 -33 -8 -7 -12 -18 -10 -24 2 -7 -3
-18 -12 -25 -14 -12 -13 -13 10 -9 16 2 26 -1 26 -9 0 -7 -7 -10 -15 -6 -10 3
-13 1 -8 -6 4 -7 5 -12 2 -12 -2 0 -13 -3 -23 -6 -13 -4 -15 -3 -4 4 9 7 10
12 2 16 -11 7 -15 -4 -12 -39 2 -17 0 -17 -8 -5 -10 13 -15 9 -8 -6 2 -5 -60
-43 -73 -44 -3 0 -6 33 -7 73 -1 40 -9 91 -17 113 l-14 42 41 6 c23 4 69 22
102 40 33 18 65 34 70 34 6 1 10 5 10 10 0 14 16 32 28 32 8 0 8 -3 -2 -9z
m51 -38 c-5 -10 -8 -26 -7 -35 3 -19 -10 -24 -20 -8 -3 6 -1 10 6 10 8 0 7 5
-2 17 -8 9 -9 14 -2 10 7 -4 14 1 18 14 4 11 9 18 12 16 2 -3 0 -14 -5 -24z
m-18 -66 c4 4 4 0 1 -10 -6 -14 -9 -14 -21 -2 -8 7 -14 20 -14 27 1 9 5 7 14
-4 7 -10 16 -15 20 -11z m-54 -17 c0 -5 -4 -10 -10 -10 -5 0 -10 5 -10 10 0 6
5 10 10 10 6 0 10 -4 10 -10z m-870 -19 c0 -4 -20 -50 -44 -102 l-44 -94 114
-29 114 -28 -77 -112 c-131 -189 -203 -290 -203 -285 0 3 29 74 65 159 36 85
65 163 63 175 -3 18 -16 22 -109 35 l-106 15 57 119 56 120 49 17 c59 21 65
22 65 10z m905 0 c3 -5 1 -12 -4 -15 -5 -4 -12 0 -14 6 -3 8 -6 6 -6 -4 -1
-10 -6 -18 -12 -18 -5 0 -7 -4 -4 -10 3 -5 1 -10 -5 -10 -6 0 -9 -4 -5 -9 3
-5 0 -13 -6 -17 -8 -4 -9 -3 -5 4 4 7 1 12 -6 13 -10 0 -10 2 0 6 6 2 9 9 6
14 -3 6 -12 5 -22 -3 -14 -11 -14 -9 1 8 9 11 14 24 10 27 -3 4 2 7 12 7 14 0
15 -3 5 -15 -8 -10 -9 -15 -2 -15 6 0 16 9 22 20 11 21 25 26 35 11z"/>
    </g>
</svg>
