<svg
        width="210mm"
        height="297mm"
        viewBox="0 0 210 297"
        version="1.1"
        xmlns="http://www.w3.org/2000/svg">
    <g
            transform="matrix(0.07863417,0,0,-0.07863417,-63.08443,148.53865)"
            stroke="none">
        <path
                d="m 2516.8652,1536.4102 c -183.3521,-3.9011 -260.074,-9.1025 -267.8761,-20.8059 -7.8021,-7.8023 -40.3114,-88.4252 -72.8205,-178.1505 -96.2275,-261.3742 -88.4253,-247.0702 -127.4363,-247.0702 -61.1173,0 -257.473,-39.011 -340.6966,-66.3186 C 1346.5332,899.22948 1051.3493,615.74901 938.21708,284.15499 853.6933,37.084895 936.91695,-229.49072 1133.2724,-349.12465 c 74.1213,-45.51293 169.0482,-84.52399 236.6674,-96.22731 41.6118,-7.80221 84.5239,-18.20517 94.9269,-23.40664 10.4029,-5.2015 61.1173,-20.80593 111.8317,-33.80959 l 92.3263,-23.40665 -62.4179,-133.93801 c -35.1098,-74.12108 -63.7181,-145.64128 -63.7181,-159.94538 0,-31.2088 13.0037,-35.1099 162.5461,-53.3151 63.7182,-7.8022 117.0333,-15.6044 118.3337,-16.9048 1.3004,-1.3004 -55.9159,-140.43987 -126.1359,-308.18737 -133.9379,-313.3889 -140.4397,-344.5977 -79.3223,-344.5977 18.2051,0 175.5497,148.2419 482.4367,452.5282 249.671,248.37057 457.7299,460.33065 461.6309,470.73358 10.403,29.90852 -19.5054,41.61181 -126.1356,52.01477 l -101.4288,9.10261 54.6156,98.82802 c 29.9082,55.91587 58.5165,105.32986 63.7179,111.83171 19.5055,19.50554 101.4288,-18.20514 146.9418,-68.91954 59.8168,-66.31881 80.6228,-153.44352 68.9195,-292.58298 -7.8022,-97.5277 -6.5018,-109.231 16.9049,-131.3373 67.6191,-59.817 310.7879,35.11 453.8286,178.15056 98.828,98.82805 187.2531,266.57563 218.462,413.51732 65.0184,310.788145 -55.9158,673.59104 -314.6893,938.86644 l -75.4214,76.72156 179.451,360.20235 c 104.0296,208.059 178.1507,371.9053 175.5497,386.2095 -5.2016,24.7069 -16.9048,26.0073 -278.2789,26.0073 -150.8428,0 -387.5101,-1.3004 -527.9497,-2.6007 z m 67.6192,-152.1432 -162.5461,-54.6153 -57.2163,-143.0407 c -31.2089,-78.0222 -84.5242,-214.56092 -118.3336,-304.28642 l -62.4177,-162.54614 -50.7144,-3.90096 c -104.0296,-6.50185 -106.6303,-22.10634 137.8392,618.97562 l 41.6118,106.6301 215.8611,-1.3004 217.1616,-1.3002 z M 1887.4865,882.32458 c -14.3041,-5.2014 -33.8096,-6.5017 -41.6118,-3.901 -9.1026,3.901 -16.9047,-1.3004 -16.9047,-10.403 0,-9.1026 -2.6007,-13.0036 -6.5019,-9.1026 -3.9011,3.9012 -3.9011,15.6044 0,26.0075 5.2015,13.0036 20.806,16.9048 49.4139,13.0036 35.1102,-5.2014 37.711,-7.8022 15.6045,-15.6045 z m -114.4324,-28.6081 c 14.3041,2.6008 31.2088,-1.3001 35.1099,-7.8021 3.9013,-7.8023 -2.6006,-10.4031 -16.9047,-6.5019 -14.3042,3.9012 -27.3077,-2.6006 -31.2089,-14.30402 -9.1026,-24.70711 14.3041,-41.61178 32.5092,-23.40665 6.502,6.50199 37.7107,10.40293 66.3189,6.50199 40.3114,-3.90123 49.414,-2.60078 35.11,7.80203 -15.6045,10.40295 -14.3041,13.00385 9.1025,11.7034 20.806,-2.60077 26.0074,-9.10262 20.806,-29.90851 -19.5058,-79.32246 -19.5058,-100.12836 3.9011,-124.83546 33.8095,-37.71069 156.0443,-97.52758 250.9711,-123.53501 44.2125,-13.00371 79.3225,-27.30774 79.3225,-33.8096 0,-22.1062 -72.8208,-37.71069 -140.4398,-29.90851 -78.0221,9.10262 -119.634,-13.00372 -119.634,-65.01844 0,-42.91215 27.3079,-67.61921 89.7254,-84.524 118.3335,-31.20885 248.3706,15.60443 319.8908,114.43251 l 39.011,54.6155 143.0407,-6.50186 c 162.546,-6.50185 175.5499,-7.80217 171.6486,-18.20511 -3.9012,-14.30417 41.6118,-71.52044 50.7145,-62.41781 5.2014,5.20154 1.3003,16.9048 -7.8022,28.60821 -13.0037,15.60434 -13.0037,19.50543 0,19.50543 11.7033,0 11.7033,5.20154 -1.3005,23.40665 -15.6045,19.50558 -15.6045,20.80603 2.6008,5.20154 11.7033,-9.10262 32.5091,-13.00371 45.513,-9.10262 15.6044,5.20154 14.304,2.60077 -3.9012,-7.80218 -16.9047,-9.10262 -29.9085,-20.80588 -29.9085,-27.30775 0,-15.60448 18.2052,-13.0037 46.8134,9.1025 13.0035,10.40308 29.9084,19.50557 35.1099,19.50557 16.9049,0 -20.806,-32.50914 -46.8135,-42.9121 -13.0033,-5.20154 -19.5054,-15.60448 -15.6041,-22.10634 5.2014,-7.80217 3.9009,-11.70326 -2.6008,-10.40295 -5.2016,1.30032 -42.9122,-18.20512 -81.9234,-44.2125 -146.9415,-94.92696 -184.6524,-152.14317 -133.938,-208.05902 28.6082,-32.50922 80.623,-29.90851 119.634,7.80219 19.5054,16.9048 50.7144,41.61181 71.5204,54.61547 36.4101,23.40667 37.7106,23.40667 29.9086,-1.30032 -46.8136,-157.344645 -50.7146,-179.450925 -36.4106,-209.3594149 6.502,-16.9048001 27.3079,-33.8095901 45.513,-39.0110601 52.0147,-13.00369 83.2237,14.30405 106.6304,94.92693 l 20.8058,72.820655 29.9086,-62.417705 c 16.9046,-33.8096 27.3075,-70.21991989 23.4065,-79.3224999 -3.9011,-10.4029601 0,-18.2051801 7.8022,-18.2051801 7.8022,0 14.304,5.20149 14.304,10.40296 0,6.50184 9.1026,11.7033301 19.5057,11.7033301 10.4028,0 15.6042,-5.2014901 11.7033,-11.7033301 -3.9013,-5.20147 -1.3005,-10.40296 6.5017,-10.40296 6.5019,0 15.6044,6.50185 18.2051,13.00369 3.9012,7.8022301 5.2015,6.5018701 3.9012,-2.60073 -2.6007,-9.10259 -14.304,-16.9048 -28.608,-16.9048 -27.3078,0 -78.0222,-45.5129 -113.1322,-101.428755 -13.0038,-19.50556 -31.2089,-39.01109 -41.6118,-42.91219 -9.1027,-3.9011 -68.9196,31.20886 -131.3373,78.02213 -62.4177,46.813285 -124.8355,85.824345 -137.8391,85.824345 -49.414,0 -75.4213,-24.707 -75.4213,-71.52028 0,-39.011045 9.1024,-52.014765 74.1208,-100.128395 88.4252,-66.31882 68.9197,-78.02214 -59.817,-36.41033 -45.5127,14.30406 -114.4324,29.90849 -152.1429,33.80959 l -68.9196,9.10258 31.2088,46.81328 c 84.524,128.7365151 118.3334,383.60877 58.5167,443.42576 -35.11,35.10996 -59.817,32.50922 -98.8282,-7.80219 -28.608,-27.30774 -32.5091,-40.31144 -24.7068,-78.02213 3.9009,-26.00743 1.3003,-78.02213 -6.5019,-117.03319 -14.3043,-68.919555 -15.6045,-70.219925 -59.817,-70.219925 -50.7144,0 -130.0369,36.41033 -163.8466,74.121005 -13.0036,14.3041 -28.6079,53.31518 -35.1099,88.42511 -18.2051,94.92691 -76.7217,126.13577 -132.6376,70.21991 -23.4066,-23.40665 -27.3078,-37.71069 -20.8058,-92.3262 15.6044,-126.135775 109.2309,-232.766015 245.7697,-278.27894 33.8094,-10.40294 59.8171,-24.70698 57.2163,-29.90847 -20.8062,-32.50923 -123.5352,-84.52399 -223.6637,-111.83172 -63.7179,-16.9048 -150.8427,-42.91217 -192.4545,-57.21624 -96.2274,-33.80958 -118.3336,-33.80958 -152.1432,0 -23.4067,23.40664 -27.3076,39.01107 -22.1062,122.23467 2.6008,53.31513 7.8022,98.828025 11.7033,102.729125 3.901,5.20151 33.8095,-3.9011 65.0184,-16.90478 89.7254,-40.311435 161.2458,-48.113635 200.2568,-22.106265 63.7181,41.611805 27.3078,137.839115 -52.0147,137.839115 -39.0111,0 -152.1432,57.21622 -184.6525,92.326175 -45.5127,50.7144 -58.5164,98.82804 -40.3113,150.84281 37.7107,102.72912 -89.7255,152.14318 -140.44,54.61545 -29.9085,-59.81695 -27.3076,-144.34093 7.8023,-218.46196 l 28.6081,-63.718065 -27.3077,-74.12103 c -28.608,-76.721755 -37.7107,-200.256805 -19.5055,-271.777095 l 9.1027,-37.7107 -54.6157,9.10257 c -83.2236,13.0037 -188.5534,65.01846 -254.8723,126.13581 -58.5164,53.3151 -119.634,149.542415 -105.3298,163.846455 3.9009,3.90112 53.3149,0 109.231,-9.10257 117.0331,-18.20516 153.4434,-7.80219 166.4472,46.8132901 15.6043,59.8169599 -31.2089,91.0258199 -167.7476,109.2310049 -66.3189,9.10254 -123.5351,18.20513 -128.7367,20.80589 -14.3041,9.10257 22.1064,137.83909 62.4178,219.7623 20.8059,42.91222 67.6193,109.23099 104.0294,146.94167 36.4104,37.71069 62.4178,70.21998 59.8171,74.12106 -3.9009,3.90109 0,6.50186 9.1027,6.50186 9.1025,0 13.0037,5.20154 9.1025,11.70326 -3.9012,6.50186 1.3005,15.60461 13.0037,19.50557 11.7033,5.20154 16.9049,2.60063 10.4028,-6.50172 -5.2014,-9.10263 -1.3001,-13.00385 9.1027,-9.10263 10.4031,3.90109 16.9047,14.30403 14.304,22.1062 -1.3002,9.10263 2.6007,13.00372 9.1026,9.10263 16.905,-10.40294 54.6156,5.20141 46.8135,19.50544 -3.9012,5.20153 -16.9049,6.50185 -29.9085,2.6009 -16.905,-6.50185 -18.2053,-3.90122 -7.8024,7.80217 11.7033,11.70327 22.1064,13.00372 40.3115,2.60065 14.3041,-6.50187 31.2088,-9.10263 37.7107,-3.90109 7.8022,5.20153 -6.5019,-9.10263 -31.2089,-32.50929 -102.7291,-96.22726 -132.6376,-175.54972 -84.5239,-227.56446 24.707,-27.30778 74.1211,-31.20886 94.9269,-6.50187 7.8022,7.80222 26.0073,33.80962 39.0111,57.21628 13.0036,22.10622 57.2161,66.31876 97.5276,96.22727 85.8244,65.01856 100.1284,62.4178 149.5423,-33.8096 18.2052,-33.8096 41.612,-68.91953 53.3152,-75.42138 31.2089,-19.50558 83.2237,0 101.4288,37.71069 13.0038,28.60806 10.4031,44.21255 -16.9047,102.72912 -16.9049,39.01114 -55.9159,94.92695 -84.5241,127.4361 -29.9086,31.20897 -53.3152,65.01857 -53.3152,72.8206 0,9.1029 -6.5018,11.70353 -15.6042,6.50186 -11.7035,-6.50186 -10.4031,-2.60063 1.3002,11.70339 23.4067,29.90851 13.0038,39.01114 -29.9084,23.40679 -50.7145,-20.80614 -40.3115,-3.90121 13.0037,18.20498 28.6081,11.70328 42.9121,24.70708 36.4105,33.80978 -6.502,10.4028 -3.9013,11.7032 9.1023,3.901 10.403,-5.2015 31.2089,-9.1024 46.8134,-7.8023 z m 100.1283,-2.6007 c -13.0037,-10.4028 -27.3077,-15.6045 -31.2089,-13.0037 -6.5016,7.8023 27.3079,31.2089 44.2125,31.2089 7.8025,0 1.3005,-7.8022 -13.0036,-18.2052 z M 2961.5911,548.1298 c -1.3001,-5.2014 -9.1023,-10.40294 -16.9046,-10.40294 -10.4029,0 -15.6046,-14.30404 -14.3041,-36.41024 2.6007,-28.6082 0,-32.50928 -14.3039,-18.20525 -10.4032,7.80231 -13.0038,18.20525 -5.2015,20.80602 6.5016,1.30032 1.3002,16.90467 -11.7034,31.20883 -16.9049,20.80589 -18.2051,23.40666 -2.6009,11.70326 16.9049,-13.00371 24.7072,-11.70326 37.7109,3.90109 16.9047,19.50557 28.608,18.20511 27.3075,-2.60077 z m 29.9086,-40.31146 c 2.6007,-5.2014 -6.5016,-11.70326 -22.1062,-11.70326 -22.1063,-2.60063 -24.707,0 -9.1025,9.10263 23.4066,15.60435 23.4066,15.60435 31.2087,2.60063 z m 7.8024,-33.80946 c 0,-2.60077 -9.1027,-9.10263 -20.806,-13.00372 -10.403,-3.90108 -15.6045,-2.60076 -11.7033,5.20141 7.8022,13.00371 32.5093,18.20525 32.5093,7.80231 z m 97.5276,-202.8576 c 3.9012,-6.50185 2.6007,-13.0037 -5.2014,-13.0037 -6.5018,0 -16.905,6.50185 -20.8059,13.0037 -3.9013,7.80222 -2.6009,13.00371 5.2014,13.00371 6.5019,0 16.9046,-5.20149 20.8059,-13.00371 z m 6.5019,-45.51292 c 0,-10.40293 -2.6007,-19.50554 -5.2017,-19.50554 -2.6006,0 -7.802,9.10261 -13.0034,19.50554 -3.9013,10.40299 -1.3005,19.50557 5.2014,19.50557 7.802,0 13.0037,-9.10258 13.0037,-19.50557 z m 33.8094,-16.90478 c -22.1061,-20.80586 -23.4065,-20.80586 -6.5019,6.50185 9.1027,15.60444 19.5058,26.00736 23.4068,22.10627 3.901,-2.60075 -3.901,-15.60447 -16.9049,-28.60812 z m -72.8205,10.40294 c 0,-6.50181 -2.6008,-13.0037 -5.2015,-13.0037 -3.9011,0 -10.403,6.50189 -14.3041,13.0037 -3.9011,7.80219 -1.3004,13.00371 5.2016,13.00371 7.8021,0 14.304,-5.20152 14.304,-13.00371 z m 94.9268,-32.50922 c -3.901,-11.7033 -10.4029,-18.20515 -13.0037,-14.30402 -3.9012,3.90108 -2.6008,11.70331 2.6008,19.5055 11.7033,20.80593 19.5056,16.9048 10.4029,-5.20148 z m -16.9049,-65.01844 c 0,-6.50184 -6.5016,-3.90108 -13.0034,6.50184 -6.502,10.40296 -13.0038,26.00738 -13.0038,32.50926 0,7.80219 6.5018,3.90112 13.0038,-6.50188 6.5018,-10.40296 13.0034,-24.70698 13.0034,-32.50922 z m 32.5092,-22.106255 c 1.3005,-23.40664 6.5019,-57.21624 11.7036,-75.42139 5.2014,-18.2051799 -2.6009,-9.10259 -16.905,19.50553 -24.7068,48.11366 -26.0074,49.41402 -27.3078,16.9048 0,-19.50553 -5.2014,-37.71072 -10.4028,-41.61182 -5.2014,-2.60074 -7.8022,14.30406 -5.2014,39.01108 2.6008,24.707 10.4028,44.212555 16.9046,44.212555 6.5021,0 11.7035,13.00366 11.7035,28.60811 0,42.91213 16.9046,16.9048 19.5053,-31.208865 z m 23.4068,-10.40296 c 3.901,-14.30404 1.3004,-23.40664 -5.2014,-18.20516 -6.5018,3.90112 -11.7035,15.60444 -11.7035,26.00738 0,26.007385 9.1027,22.106285 16.9049,-7.80222 z m -92.3261,-149.54242 c 3.9009,3.90111 6.5017,-1.30035 6.5017,-10.40296 0,-14.30406 -7.8022,-14.30406 -31.2088,-3.90112 -15.6045,7.80223 -29.9085,19.50556 -29.9085,24.70703 0,5.20146 10.403,3.9011 24.7071,-2.60074 13.0036,-7.80221 26.0073,-10.40295 29.9085,-7.80221 z m 78.022,-70.219915 c -10.4029,-5.20147 -13.0036,-19.50554 -7.8022,-33.8096 6.5019,-16.9048 5.2014,-20.80589 -5.2014,-14.30406 -9.1026,5.20149 -15.6044,1.30037 -15.6044,-11.70331 0,-11.70333 5.2014,-18.20516 11.7032,-13.00369 6.5019,3.90111 16.9048,0 22.1063,-7.80223 5.2016,-10.40294 3.9012,-11.7033 -6.5018,-6.50184 -7.8024,5.2015 -19.5056,-2.60073 -27.3077,-20.80589 -14.3041,-29.9085 -14.3041,-29.9085 -7.8022,0 2.6008,16.90479 -2.6007,33.80958 -15.6045,41.6118 -14.3041,7.80222 -16.9047,11.70333 -5.2014,13.00369 11.7032,0 14.304,10.40296 10.4028,29.90849 -3.901,15.60441 -3.901,20.8059 0,11.70333 6.5018,-13.00372 13.0039,-10.40296 27.3078,10.40293 10.4028,15.60444 23.4065,24.70701 27.3078,19.50555 5.2014,-3.90111 1.3004,-13.00368 -7.8023,-18.20517 z m 31.2089,-22.10627 c -5.2014,-18.20517 -11.7033,-31.20886 -15.6044,-27.30775 -3.9013,2.60073 -2.6008,22.10626 2.6006,40.31144 3.9013,19.50552 11.7035,32.50921 14.3043,28.60811 3.901,-3.90111 2.6007,-22.10627 -1.3005,-41.6118 z m -110.5314,-94.92693 c -11.7034,-7.8022 -13.0035,-14.30405 -2.6007,-19.50553 7.8021,-5.20147 14.3041,-16.9048 14.3041,-24.70703 0,-10.40294 -3.9012,-10.40294 -11.7034,2.60076 -6.5019,10.40295 -14.3039,11.70331 -19.5053,3.90111 -5.2018,-7.80223 2.6005,-20.80592 14.3039,-28.60813 20.8059,-13.00369 20.8059,-14.30406 1.3005,-7.80222 -14.3043,3.9011 -26.0076,-5.20147 -35.1102,-28.6081 l -14.304,-35.10999 6.5019,35.10999 c 3.9011,19.50552 0,39.01105 -6.5019,42.91216 -7.8022,5.20148 -13.0036,3.90111 -11.7033,-2.60073 1.3004,-5.20148 1.3004,-32.50921 0,-59.81696 -1.3003,-33.80959 -6.5019,-46.81329 -16.9048,-40.31144 -9.1027,6.50185 -11.7032,1.30035 -7.8022,-15.60444 3.9012,-14.30405 -1.3005,-32.50921 -11.7034,-42.91216 -10.4029,-9.1026 -15.6043,-23.40664 -13.0036,-31.20886 2.6007,-9.10258 -3.9011,-23.40661 -15.6044,-32.50922 -18.2053,-15.60441 -16.9048,-16.9048 13.0037,-11.70333 20.8059,2.60077 33.8095,-1.30038 33.8095,-11.70331 0,-9.10257 -9.1027,-13.0037 -19.5055,-7.8022 -13.0037,3.90108 -16.9046,1.30034 -10.403,-7.80224 5.2014,-9.10257 6.5018,-15.60444 2.6007,-15.60444 -2.6007,0 -16.9048,-3.9011 -29.9085,-7.80219 -16.9047,-5.20147 -19.5054,-3.9011 -5.2014,5.20149 11.7033,9.10257 13.0037,15.60441 2.6006,20.80588 -14.3039,9.10258 -19.5054,-5.20147 -15.6042,-50.7144 2.6006,-22.10625 0,-22.10625 -10.4031,-6.50185 -13.0035,16.9048 -19.5053,11.70334 -10.4028,-7.80219 2.6007,-6.50184 -78.0222,-55.91587 -94.9269,-57.21627 -3.9013,0 -7.8024,42.91221 -9.1027,94.92698 -1.3004,52.01474 -11.7032,118.33355 -22.1063,146.94168 l -18.2049,54.61549 53.315,7.80222 c 29.9085,5.20147 89.7254,28.60811 132.6376,52.01473 42.9121,23.40665 84.5239,44.21256 91.0258,44.21256 7.8021,1.30038 13.0038,6.50185 13.0038,13.00369 0,18.20517 20.8059,41.61181 36.4101,41.61181 10.403,0 10.403,-3.90111 -2.6007,-11.70332 z m 66.3189,-49.41402 c -6.5019,-13.00369 -10.403,-33.8096 -9.1026,-45.5129 3.901,-24.70702 -13.0037,-31.20887 -26.0073,-10.40295 -3.9012,7.80219 -1.3004,13.00368 7.802,13.00368 10.4031,0 9.1027,6.50185 -2.6006,22.10625 -10.4031,11.70333 -11.7032,18.20518 -2.6008,13.00369 9.1027,-5.20146 18.2054,1.30038 23.4067,18.20518 5.2014,14.30407 11.7033,23.40664 15.6045,20.80591 2.6008,-3.90112 0,-18.20517 -6.5019,-31.20886 z m -23.4066,-85.82434 c 5.2014,5.20147 5.2014,0 1.3003,-13.00369 -7.8022,-18.20517 -11.7034,-18.20517 -27.3076,-2.60075 -10.4031,9.10259 -18.2052,26.00739 -18.2052,35.10997 1.3002,11.7033 6.5016,9.10256 18.2052,-5.2015 9.1023,-13.00367 20.8056,-19.50552 26.0073,-14.30403 z m -70.2202,-22.10629 c 0,-6.50184 -5.2014,-13.00368 -13.0034,-13.00368 -6.5019,0 -13.0038,6.50184 -13.0038,13.00368 0,7.80223 6.5019,13.00369 13.0038,13.00369 7.802,0 13.0034,-5.20146 13.0034,-13.00369 z m -1131.3208,-24.707 c 0,-5.20148 -26.0073,-65.01845 -57.2161,-132.63764 l -57.2163,-122.23465 148.2421,-37.7107 148.242,-36.4103 -100.1283,-145.6414 c -170.3485,-245.76967 -263.9749,-377.10697 -263.9749,-370.60507 0,3.9011 37.7105,96.2273 84.5239,206.7586 46.8132,110.53137 84.524,211.96017 81.9234,227.56457 -3.9013,23.4067 -20.8059,28.6081 -141.7404,45.5129 l -137.839,19.5056 74.121,154.74388 72.8206,156.04425 63.7181,22.10627 c 76.7217,27.30774 84.5239,28.60812 84.5239,13.00369 z m 1176.8339,0 c 3.9012,-6.50184 1.3004,-15.60442 -5.2015,-19.50553 -6.5018,-5.20148 -15.6044,0 -18.2051,7.8022 -3.9011,10.40296 -7.8021,7.80223 -7.8021,-5.20146 -1.3004,-13.00369 -7.8023,-23.40664 -15.6045,-23.40664 -6.5019,0 -9.1027,-5.20148 -5.2014,-13.00369 3.9009,-6.50187 1.3001,-13.00371 -6.5019,-13.00371 -7.8024,0 -11.7034,-5.20145 -6.5019,-11.70329 3.9011,-6.50186 0,-16.9048 -7.8021,-22.1063 -10.4031,-5.20147 -11.7034,-3.90109 -6.502,5.2015 5.2015,9.10258 1.3004,15.60442 -7.8023,16.9048 -13.0036,0 -13.0036,2.60072 0,7.8022 7.8023,2.60073 11.7033,11.70332 7.8023,18.20516 -3.9011,7.8022 -15.6045,6.50185 -28.6081,-3.90109 -18.2053,-14.30407 -18.2053,-11.70334 1.3004,10.40294 11.7032,14.30405 18.2052,31.20885 13.0037,35.10996 -3.9011,5.20147 2.6008,9.10258 15.6044,9.10258 18.2051,0 19.5056,-3.90111 6.5018,-19.50553 -10.4029,-13.00369 -11.7033,-19.50553 -2.6007,-19.50553 7.8021,0 20.8059,11.70332 28.6079,26.00737 14.3044,27.30775 32.5093,33.8096 45.5131,14.30406 z"
                style="stroke-width:1.30036;fill:#ffffff"/>
    </g>
</svg>
